#!OML:ASF F:\VICON\USERDATA\INSTALL\rory3\rory3.ASF
:FULLY-SPECIFIED
:DEGREES
319
root 5.49521 17.066 -10.1965 4.42642 78.4841 -14.5965
lowerback 38.9537 0.582143 -4.44747
upperback 11.2129 0.200075 -1.089
thorax -6.47095 0.554638 1.02287
lowerneck -21.3683 -1.28676 -9.16674
upperneck 29.7553 0.157735 5.55155
head 13.651 -0.0917847 3.847
rclavicle -7.15625e-015 5.1684e-015
rhumerus -18.8634 4.20462 -81.2369
rradius 67.2672
rwrist -5.03673
rhand -17.5546 11.0867
rfingers 7.12502
rthumb 8.70018 -18.714
lclavicle -7.15625e-015 5.1684e-015
lhumerus 15.053 -7.87832 80.2102
lradius 37.1064
lwrist 0.318621
lhand -28.3193 29.6324
lfingers 7.12502
lthumb -1.69428 59.6054
rfemur -38.2794 -1.95985 26.1695
rtibia 50.5122
rfoot -26.0586 -2.8993
rtoes 4.57704
lfemur -51.7468 -3.40229 -9.64654
ltibia 23.7307
lfoot 7.38267 -8.87632
ltoes -10.5364
320
root 5.56012 17.0423 -10.2251 5.29137 78.381 -14.5568
lowerback 39.3323 0.487432 -4.741
upperback 11.2191 -0.0345277 -1.07809
thorax -6.56769 0.444267 1.27036
lowerneck -21.757 -1.20264 -9.50786
upperneck 29.5126 0.428818 5.52619
head 13.605 -0.0163196 3.93573
rclavicle 3.73715e-014 4.33351e-014
rhumerus -18.5566 4.2343 -81.77
rradius 66.8878
rwrist -4.83009
rhand -17.4815 11.2225
rfingers 7.12502
rthumb 8.77072 -18.5752
lclavicle 3.73715e-014 4.33351e-014
lhumerus 16.1743 -7.03508 80.1255
lradius 36.5202
lwrist -0.040778
lhand -28.2403 29.4084
lfingers 7.12502
lthumb -1.61798 59.382
rfemur -39.3007 -1.82379 26.0329
rtibia 51.1599
rfoot -26.3597 -2.78558
rtoes 4.9752
lfemur -53.1644 -2.85838 -10.035
ltibia 25.1505
lfoot 6.88835 -9.40295
ltoes -7.91331
321
root 5.61993 17.0168 -10.2552 6.0956 78.275 -14.6556
lowerback 39.6734 0.444339 -4.94842
upperback 11.2336 -0.180122 -1.13663
thorax -6.64644 0.378815 1.36694
lowerneck -22.2081 -1.16904 -9.56384
upperneck 29.27 0.517086 5.53459
head 13.588 0.0182734 3.95921
rclavicle 0 9.54166e-015
rhumerus -18.344 4.38457 -82.0413
rradius 66.7384
rwrist -4.80111
rhand -17.5129 11.0075
rfingers 7.12502
rthumb 8.74043 -18.7915
lclavicle 0 9.54166e-015
lhumerus 17.4398 -6.55233 79.8278
lradius 35.9126
lwrist -0.163325
lhand -28.3302 28.9875
lfingers 7.12502
lthumb -1.7048 58.9604
rfemur -40.4209 -1.6885 25.9486
rtibia 51.7329
rfoot -26.5149 -2.78068
rtoes 5.12583
lfemur -54.6822 -2.23156 -10.4592
ltibia 26.5801
lfoot 6.54713 -10.4494
ltoes -5.92485
322
root 5.67665 16.9884 -10.2849 6.62107 78.1306 -15.0977
lowerback 39.9264 0.402116 -5.09266
upperback 11.2719 -0.301436 -1.24301
thorax -6.67269 0.325249 1.37232
lowerneck -22.5715 -1.06459 -9.39028
upperneck 28.8912 0.636011 5.45318
head 13.4919 0.0822689 3.90526
rclavicle 1.19271e-014 2.5842e-014
rhumerus -18.1566 4.54702 -82.2232
rradius 66.6737
rwrist -4.76464
rhand -17.4497 10.9025
rfingers 7.12502
rthumb 8.80144 -18.894
lclavicle 1.19271e-014 2.5842e-014
lhumerus 18.7334 -6.36704 79.2306
lradius 35.4676
lwrist 0.199715
lhand -28.7395 29.6577
lfingers 7.12502
lthumb -2.10015 59.6271
rfemur -41.5863 -1.44306 25.9467
rtibia 52.2408
rfoot -26.5165 -2.87527
rtoes 4.91983
lfemur -56.2455 -1.7074 -10.6927
ltibia 27.8909
lfoot 6.209 -11.0681
ltoes -4.8013
323
root 5.73747 16.9645 -10.3141 6.53228 77.9093 -16.1363
lowerback 40.2145 0.0501972 -4.66247
upperback 11.3277 -0.63138 -1.89248
thorax -6.70499 0.200839 0.586545
lowerneck -22.9763 -0.841687 -8.7752
upperneck 28.4366 0.673559 5.61683
head 13.3764 0.195033 3.85829
rclavicle -1.74931e-014 9.54166e-015
rhumerus -18.0015 4.40625 -83.291
rradius 66.5313
rwrist -4.56974
rhand -17.6601 11.0202
rfingers 7.12502
rthumb 8.59838 -18.7848
lclavicle -1.74931e-014 9.54166e-015
lhumerus 20.1374 -6.26383 77.8862
lradius 34.944
lwrist 0.662089
lhand -28.9806 30.1056
lfingers 7.12502
lthumb -2.33301 60.0726
rfemur -42.619 -1.11438 26.0765
rtibia 52.6632
rfoot -26.5018 -3.08584
rtoes 4.1256
lfemur -57.6444 -1.69329 -10.27
ltibia 29.0285
lfoot 5.58597 -10.5835
ltoes -4.84538
324
root 5.80114 16.9496 -10.3405 6.38407 77.6194 -17.1134
lowerback 40.6913 -0.448842 -4.03194
upperback 11.3317 -1.10039 -2.83343
thorax -6.87875 0.0284244 -0.558107
lowerneck -23.2474 -0.563573 -8.04925
upperneck 28.0202 0.669988 5.99854
head 13.2527 0.331193 3.87213
rclavicle 6.36111e-015 1.27222e-014
rhumerus -17.9772 4.34928 -84.7136
rradius 66.4271
rwrist -4.41426
rhand -17.9333 11.1203
rfingers 7.12502
rthumb 8.33471 -18.6953
lclavicle 6.36111e-015 1.27222e-014
lhumerus 21.4797 -6.02666 76.2985
lradius 34.2814
lwrist 1.01841
lhand -29.1639 29.7071
lfingers 7.12502
lthumb -2.50999 59.6721
rfemur -43.4165 -0.585202 26.1338
rtibia 52.9771
rfoot -26.5506 -3.33525
rtoes 4.10827
lfemur -58.783 -1.73535 -9.7853
ltibia 29.9959
lfoot 5.07781 -10.1494
ltoes -5.89007
325
root 5.86646 16.9397 -10.3694 6.21286 77.352 -18.0806
lowerback 41.1835 -0.357482 -4.19067
upperback 11.341 -1.06742 -2.8295
thorax -7.01038 0.0468094 -0.488856
lowerneck -23.357 -0.509975 -7.95332
upperneck 27.5687 0.716326 5.95059
head 13.0843 0.360017 3.82631
rclavicle -9.54166e-015 -1.31198e-014
rhumerus -17.8544 4.45163 -84.7259
rradius 66.3045
rwrist -4.37542
rhand -17.8987 11.2214
rfingers 7.12502
rthumb 8.36805 -18.5928
lclavicle -9.54166e-015 -1.31198e-014
lhumerus 22.753 -5.81016 75.8407
lradius 33.7077
lwrist 1.8429
lhand -29.735 29.9964
lfingers 7.12502
lthumb -3.06155 59.9542
rfemur -44.1401 -0.197774 26.2099
rtibia 53.199
rfoot -26.6102 -3.45253
rtoes 4.48154
lfemur -59.8556 -1.14073 -9.97295
ltibia 30.841
lfoot 4.83856 -10.8112
ltoes -6.01562
326
root 5.93412 16.9336 -10.3968 5.94522 77.2306 -19.1575
lowerback 41.5471 0.549272 -5.45912
upperback 11.4472 -0.335585 -1.45026
thorax -6.95361 0.324308 1.3353
lowerneck -23.5578 -0.832241 -8.82974
upperneck 27.1022 0.802819 5.28657
head 12.9349 0.218828 3.71078
rclavicle -3.18055e-015 -5.1684e-015
rhumerus -17.5642 4.91877 -82.8128
rradius 66.244
rwrist -4.60543
rhand -17.6158 11.3967
rfingers 7.12502
rthumb 8.64107 -18.4065
lclavicle -3.18055e-015 -5.1684e-015
lhumerus 24.4719 -4.44763 78.3541
lradius 32.4511
lwrist 1.17829
lhand -30.2683 30.2494
lfingers 7.12502
lthumb -3.57651 60.1992
rfemur -44.8359 -0.115109 26.397
rtibia 53.3348
rfoot -26.6153 -3.49514
rtoes 4.59659
lfemur -60.9528 -0.123053 -10.6657
ltibia 31.6053
lfoot 4.85751 -12.076
ltoes -3.69913
327
root 6.00085 16.9252 -10.4179 5.72498 77.0073 -20.2303
lowerback 41.879 0.530357 -5.58145
upperback 11.5343 -0.420395 -1.54864
thorax -6.9451 0.288375 1.32304
lowerneck -23.8148 -0.726536 -8.657
upperneck 26.6246 0.919314 5.18546
head 12.7827 0.280975 3.64641
rclavicle -7.4743e-014 -3.18055e-015
rhumerus -17.3074 5.37707 -83.0677
rradius 66.1358
rwrist -4.6658
rhand -17.42 11.2669
rfingers 7.12502
rthumb 8.83003 -18.5284
lclavicle -7.4743e-014 -3.18055e-015
lhumerus 25.9987 -3.68124 78.1621
lradius 31.5835
lwrist 1.03347
lhand -30.0596 29.9328
lfingers 7.12502
lthumb -3.37503 59.8858
rfemur -45.5637 0.0307084 26.6138
rtibia 53.419
rfoot -26.6249 -3.53772
rtoes 4.62501
lfemur -62.0611 0.629756 -10.9918
ltibia 32.3786
lfoot 4.6582 -12.7012
ltoes -2.58239
328
root 6.06848 16.9157 -10.4414 5.57571 76.7898 -21.3059
lowerback 42.0838 0.509177 -5.70193
upperback 11.6337 -0.495452 -1.58026
thorax -6.88529 0.251503 1.37877
lowerneck -24.0253 -0.659409 -8.69041
upperneck 26.1622 1.04695 5.12189
head 12.6273 0.332086 3.63396
rclavicle 1.11319e-014 3.73715e-014
rhumerus -17.0216 5.88737 -83.1965
rradius 66.0799
rwrist -4.57701
rhand -17.3949 10.9527
rfingers 7.12502
rthumb 8.85427 -18.8415
lclavicle 1.11319e-014 3.73715e-014
lhumerus 27.4512 -3.00015 77.8794
lradius 30.8481
lwrist 0.9352
lhand -29.7658 29.8226
lfingers 7.12502
lthumb -3.09126 59.78
rfemur -46.3495 0.0548302 26.8616
rtibia 53.4522
rfoot -26.6292 -3.40832
rtoes 4.67072
lfemur -63.2381 1.12357 -11.107
ltibia 33.1656
lfoot 4.42063 -13.019
ltoes -2.29047
